<svg width="95" height="45" viewBox="0 0 95 45" fill="none" xmlns="http://www.w3.org/2000/svg">
<path d="M17.62 28.04V16.52H19.548V21.368H25.004V16.52H26.924V28.04H25.004V23.176H19.548V28.04H17.62ZM29.8269 18.088V16.32H31.7549V18.088H29.8269ZM29.8269 28.04V19.4H31.7549V28.04H29.8269ZM34.6513 28.04V19.4H36.3553V21.504L36.1473 21.232C36.2539 20.944 36.3953 20.6827 36.5713 20.448C36.7526 20.208 36.9686 20.0107 37.2193 19.856C37.4326 19.712 37.6673 19.6 37.9233 19.52C38.1846 19.4347 38.4513 19.384 38.7233 19.368C38.9953 19.3467 39.2593 19.3573 39.5153 19.4V21.2C39.2593 21.1253 38.9633 21.1013 38.6273 21.128C38.2966 21.1547 37.9979 21.248 37.7313 21.408C37.4646 21.552 37.2459 21.736 37.0753 21.96C36.9099 22.184 36.7873 22.44 36.7073 22.728C36.6273 23.0107 36.5873 23.3173 36.5873 23.648V28.04H34.6513ZM45.3136 28.28C44.439 28.28 43.671 28.0907 43.0096 27.712C42.3483 27.3333 41.831 26.808 41.4576 26.136C41.0896 25.464 40.9056 24.6907 40.9056 23.816C40.9056 22.872 41.087 22.0533 41.4496 21.36C41.8123 20.6613 42.3163 20.12 42.9616 19.736C43.607 19.352 44.3536 19.16 45.2016 19.16C46.0976 19.16 46.8576 19.3707 47.4816 19.792C48.111 20.208 48.5776 20.7973 48.8816 21.56C49.1856 22.3227 49.3003 23.2213 49.2256 24.256H47.3136V23.552C47.3083 22.6133 47.143 21.928 46.8176 21.496C46.4923 21.064 45.9803 20.848 45.2816 20.848C44.4923 20.848 43.9056 21.0933 43.5216 21.584C43.1376 22.0693 42.9456 22.7813 42.9456 23.72C42.9456 24.5947 43.1376 25.272 43.5216 25.752C43.9056 26.232 44.4656 26.472 45.2016 26.472C45.6763 26.472 46.0843 26.368 46.4256 26.16C46.7723 25.9467 47.039 25.64 47.2256 25.24L49.1296 25.816C48.799 26.5947 48.287 27.2 47.5936 27.632C46.9056 28.064 46.1456 28.28 45.3136 28.28ZM42.3376 24.256V22.8H48.2816V24.256H42.3376ZM55.2138 28.04V16.52H56.9498L60.9338 24.68L64.9178 16.52H66.6538V28.04H64.8538V20.656L61.3178 28.04H60.5498L57.0218 20.656V28.04H55.2138ZM73.3293 28.28C72.4546 28.28 71.6866 28.0907 71.0253 27.712C70.3639 27.3333 69.8466 26.808 69.4733 26.136C69.1053 25.464 68.9213 24.6907 68.9213 23.816C68.9213 22.872 69.1026 22.0533 69.4653 21.36C69.8279 20.6613 70.3319 20.12 70.9773 19.736C71.6226 19.352 72.3693 19.16 73.2173 19.16C74.1133 19.16 74.8733 19.3707 75.4973 19.792C76.1266 20.208 76.5933 20.7973 76.8973 21.56C77.2013 22.3227 77.3159 23.2213 77.2413 24.256H75.3293V23.552C75.3239 22.6133 75.1586 21.928 74.8333 21.496C74.5079 21.064 73.9959 20.848 73.2973 20.848C72.5079 20.848 71.9213 21.0933 71.5373 21.584C71.1533 22.0693 70.9613 22.7813 70.9613 23.72C70.9613 24.5947 71.1533 25.272 71.5373 25.752C71.9213 26.232 72.4813 26.472 73.2173 26.472C73.6919 26.472 74.0999 26.368 74.4413 26.16C74.7879 25.9467 75.0546 25.64 75.2413 25.24L77.1453 25.816C76.8146 26.5947 76.3026 27.2 75.6093 27.632C74.9213 28.064 74.1613 28.28 73.3293 28.28ZM70.3533 24.256V22.8H76.2973V24.256H70.3533Z" fill="#155EEF"/>
<rect x="1" y="0.540001" width="93" height="43" rx="7.5" stroke="#155EEF"/>
</svg>
